<?xml version="1.0" standalone="no"?>
<!DOCTYPE svg PUBLIC "-//W3C//DTD SVG 20010904//EN"
 "http://www.w3.org/TR/2001/REC-SVG-20010904/DTD/svg10.dtd">
<svg version="1.0" xmlns="http://www.w3.org/2000/svg"
 width="1078.000000pt" height="1078.000000pt" viewBox="0 0 1078.000000 1078.000000"
 preserveAspectRatio="xMidYMid meet">
<metadata>
Created by potrace 1.11, written by Peter Selinger 2001-2013
</metadata>
<g transform="translate(0.000000,1078.000000) scale(0.100000,-0.100000)"
fill="#000000" stroke="none">
<path d="M5128 10774 c-2 -1 -48 -5 -103 -8 -180 -12 -186 -13 -410 -42 -38
-5 -177 -29 -220 -38 -11 -2 -40 -7 -65 -12 -25 -4 -47 -8 -50 -9 -3 -1 -32
-7 -65 -15 -33 -8 -62 -14 -65 -15 -3 -1 -21 -5 -40 -9 -132 -29 -485 -141
-660 -209 -482 -186 -958 -454 -1360 -766 -284 -220 -558 -482 -806 -770 -16
-19 -34 -39 -39 -45 -25 -27 -217 -278 -266 -349 -58 -84 -181 -273 -209 -322
-115 -200 -154 -273 -220 -410 -99 -206 -113 -236 -156 -347 -20 -51 -44 -113
-54 -138 -82 -204 -216 -686 -245 -880 -3 -20 -8 -47 -11 -60 -2 -14 -7 -41
-10 -60 -2 -19 -6 -42 -9 -50 -2 -8 -7 -37 -10 -65 -3 -27 -8 -66 -10 -85 -3
-19 -7 -57 -10 -85 -3 -27 -8 -63 -10 -80 -25 -197 -26 -846 0 -1025 2 -14 6
-52 10 -85 3 -33 8 -71 10 -85 2 -14 7 -47 9 -75 3 -27 8 -61 10 -75 3 -14 14
-75 25 -136 11 -60 27 -140 35 -177 9 -37 18 -82 21 -100 3 -17 15 -63 26
-102 11 -38 26 -95 35 -125 105 -376 294 -833 478 -1155 29 -49 61 -107 71
-128 11 -20 23 -37 27 -37 5 0 8 -5 8 -11 0 -9 159 -252 242 -371 245 -347
655 -773 1018 -1057 58 -45 112 -87 120 -94 71 -58 390 -268 507 -333 37 -22
86 -49 108 -62 51 -29 341 -172 386 -191 19 -8 66 -29 104 -46 39 -18 86 -38
105 -45 19 -7 49 -19 65 -25 93 -39 366 -132 413 -141 13 -3 42 -11 65 -18 48
-16 275 -74 322 -82 16 -3 46 -9 65 -14 37 -10 261 -49 320 -56 19 -2 51 -6
70 -9 114 -16 128 -17 305 -32 185 -15 768 -8 908 12 18 2 55 7 82 10 28 3 64
8 80 10 17 3 66 9 111 15 44 6 91 13 105 15 13 3 40 8 59 11 30 4 60 10 105
20 6 1 21 4 35 7 207 42 627 166 822 242 291 114 715 323 903 445 13 8 45 29
72 45 116 70 329 224 497 359 206 164 513 461 681 660 28 32 55 64 60 70 26
27 167 209 226 291 384 531 664 1116 834 1735 85 311 129 548 169 915 27 239
28 800 2 1020 -2 17 -7 59 -11 95 -4 36 -9 79 -11 95 -2 17 -6 48 -9 70 -3 22
-12 76 -20 120 -7 44 -16 94 -19 110 -11 72 -50 241 -86 380 -136 517 -353
1020 -643 1485 -116 185 -170 262 -324 460 -189 244 -445 518 -653 700 -47 41
-90 79 -96 84 -47 46 -206 169 -359 278 -428 308 -930 564 -1425 728 -150 49
-366 111 -470 134 -41 9 -91 21 -110 26 -19 6 -87 19 -150 31 -145 26 -144 26
-210 33 -30 4 -66 8 -80 10 -71 12 -174 23 -300 32 -89 6 -647 14 -652 8z"/>
</g>
</svg>
