<?xml version="1.0" standalone="no"?>
<!DOCTYPE svg PUBLIC "-//W3C//DTD SVG 20010904//EN"
 "http://www.w3.org/TR/2001/REC-SVG-20010904/DTD/svg10.dtd">
<svg version="1.0" xmlns="http://www.w3.org/2000/svg"
 width="256.000000pt" height="256.000000pt" viewBox="0 0 256.000000 256.000000"
 preserveAspectRatio="xMidYMid meet">
<metadata>
Created by potrace 1.11, written by Peter Selinger 2001-2013
</metadata>
<g transform="translate(0.000000,256.000000) scale(0.100000,-0.100000)"
fill="#000000" stroke="none">
<path d="M91 2546 c-53 -29 -50 28 -51 -1264 0 -1308 -3 -1244 55 -1270 20 -9
308 -12 1186 -12 1261 0 1201 -3 1227 55 17 38 17 2412 0 2450 -26 58 34 55
-1230 55 -946 -1 -1167 -3 -1187 -14z m704 -456 l0 -55 -87 -3 -88 -3 0 -249
0 -250 -70 0 -70 0 0 250 0 249 -87 3 -88 3 -3 44 c-6 76 -20 72 250 69 l243
-3 0 -55z m278 -111 c25 -7 37 -15 34 -24 -3 -7 -11 -31 -18 -53 l-12 -41 -47
6 c-44 5 -49 3 -66 -23 -16 -23 -20 -52 -22 -171 l-4 -143 -64 0 -64 0 2 223
3 222 58 3 c56 3 57 3 58 -25 0 -15 3 -22 6 -15 7 17 63 52 83 52 8 0 32 -5
53 -11z m314 -1 c86 -21 130 -86 148 -215 l5 -43 -145 0 -145 0 0 -25 c0 -38
42 -75 84 -75 26 0 40 7 58 29 23 29 24 29 78 19 30 -5 56 -11 58 -13 7 -7
-28 -61 -55 -88 -73 -68 -231 -61 -300 14 -35 38 -54 97 -55 163 0 84 20 144
62 186 55 55 120 70 207 48z m475 2 c80 -23 131 -94 144 -203 l7 -57 -147 0
c-158 0 -162 -2 -134 -53 29 -56 93 -64 130 -18 23 29 24 29 78 19 30 -5 56
-11 58 -13 7 -7 -27 -61 -55 -87 -38 -36 -73 -48 -141 -48 -134 1 -212 85
-212 229 0 77 15 125 53 168 56 64 134 86 219 63z m433 -725 l25 -24 0 -491 0
-491 -25 -24 -24 -25 -991 0 -991 0 -24 25 -25 24 0 491 0 491 25 24 24 25
991 0 991 0 24 -25z"/>
<path d="M1295 1878 c-27 -15 -44 -39 -45 -60 0 -16 10 -18 81 -18 79 0 80 0
74 23 -8 28 -51 67 -73 67 -9 0 -26 -6 -37 -12z"/>
<path d="M1749 1861 c-50 -50 -41 -61 51 -61 44 0 80 4 80 10 0 23 -24 59 -47
69 -37 17 -52 14 -84 -18z"/>
<path d="M783 1070 c-87 -18 -134 -59 -154 -133 -14 -54 2 -110 45 -152 32
-33 71 -50 193 -85 82 -23 105 -42 101 -78 -5 -38 -49 -66 -107 -66 -62 0 -99
24 -119 76 -14 36 -18 39 -45 34 -16 -3 -45 -6 -64 -6 -35 0 -35 0 -28 -37 24
-131 117 -191 283 -181 140 8 215 76 214 193 -1 97 -49 152 -165 186 -40 11
-94 28 -120 36 -102 32 -81 103 30 103 44 0 58 -5 78 -25 14 -13 25 -31 25
-40 0 -12 14 -15 71 -15 l71 0 -7 38 c-10 55 -48 107 -97 130 -50 24 -145 34
-205 22z"/>
<path d="M1197 1064 c-4 -4 -7 -144 -7 -311 l0 -303 70 0 70 0 -2 308 -3 307
-60 3 c-34 2 -64 0 -68 -4z"/>
<path d="M1438 1064 c-5 -4 -8 -144 -8 -311 l0 -303 70 0 70 0 0 125 0 125 30
0 c55 0 80 -22 157 -137 l77 -113 78 0 c43 0 78 2 78 5 0 15 -121 196 -152
227 l-36 36 31 13 c72 28 107 81 107 162 0 40 -6 63 -26 94 -45 68 -72 76
-284 81 -102 2 -188 1 -192 -4z m340 -130 c26 -18 30 -69 8 -100 -12 -16 -29
-20 -115 -22 l-101 -4 0 71 0 71 93 0 c68 0 99 -4 115 -16z"/>
</g>
</svg>
